<svg width="113" height="24" viewBox="0 0 113 24" fill="none" xmlns="http://www.w3.org/2000/svg">
<path d="M44.1241 0.334473H66.2V22.7448H44.1241V0.334473Z" fill="#4B5048"/>
<path d="M8.61835 23.0793C6.44548 23.0793 4.61734 22.5932 3.13394 21.621C1.65054 20.6277 0.605896 19.2856 0 17.5948L3.69805 15.4073C4.55467 17.6688 6.23655 18.7995 8.74371 18.7995C9.9555 18.7995 10.8434 18.5776 11.4076 18.1337C11.9717 17.6899 12.2537 17.1298 12.2537 16.4535C12.2537 15.6715 11.909 15.0692 11.2195 14.6465C10.5301 14.2027 9.29737 13.7271 7.52147 13.2199C6.5395 12.924 5.70378 12.6281 5.01431 12.3322C4.34574 12.0363 3.66671 11.6453 2.97725 11.1592C2.30867 10.652 1.79679 10.0179 1.44161 9.25708C1.08643 8.49623 0.908844 7.60856 0.908844 6.59409C0.908844 4.58627 1.60876 2.99059 3.00859 1.80703C4.42931 0.602345 6.13208 0 8.11692 0C9.89282 0 11.4493 0.443833 12.7865 1.3315C14.1445 2.19803 15.1996 3.41329 15.9518 4.97727L12.3164 7.10133C11.4389 5.19918 10.0391 4.24811 8.11692 4.24811C7.21852 4.24811 6.50816 4.45946 5.98583 4.88216C5.4844 5.28373 5.23369 5.8121 5.23369 6.46728C5.23369 7.16473 5.51574 7.73537 6.07985 8.17921C6.66486 8.6019 7.77218 9.06687 9.40183 9.57411C10.0704 9.78546 10.5718 9.95454 10.9061 10.0813C11.2613 10.187 11.7314 10.3667 12.3164 10.6203C12.9223 10.8528 13.3819 11.0747 13.6953 11.286C14.0296 11.4974 14.4057 11.7827 14.8236 12.142C15.2414 12.5013 15.5548 12.8712 15.7637 13.2516C15.9936 13.632 16.1816 14.097 16.3279 14.6465C16.495 15.1749 16.5786 15.7561 16.5786 16.3901C16.5786 18.4402 15.8369 20.0676 14.3535 21.2723C12.891 22.477 10.9793 23.0793 8.61835 23.0793Z" fill="#4B5048"/>
<path d="M37.1138 0.443832V4.62854H31.1906V22.6355H26.8658V4.62854H20.974V0.443832H37.1138Z" fill="#4B5048"/>
<path d="M86.7416 0.668945H91.1244V22.7448H87.7897L78.262 9.24699V22.7448H73.8793V0.668945H77.214L86.7416 14.1352V0.668945Z" fill="#4B5048"/>
<path d="M103.631 18.5819H113V22.7448H99.2483V0.668945H112.841V4.83182H103.631V9.53083H112.047V13.6306H103.631V18.5819Z" fill="#4B5048"/>
</svg>
